<svg width="50" height="50" viewBox="0 0 50 50" fill="none" xmlns="http://www.w3.org/2000/svg">
    <path d="M6.29891 0.0976562C4.76571 0.410156 3.33992 1.47461 2.67586 2.82227C2.05086 4.10156 2.09969 2.24609 2.07039 24.4629C2.05086 38.125 2.08016 44.9316 2.14852 45.459C2.26571 46.3965 2.79305 47.5781 3.40828 48.2617C3.90633 48.8281 4.73641 49.3848 5.56649 49.707L6.20125 49.9512H18.7013H31.2012L31.8653 49.7266C33.2325 49.248 34.2091 48.3691 34.8634 47.0312C35.3712 46.0156 35.4493 45.4199 35.4493 42.6953C35.4493 40.2344 35.3907 39.9805 34.8145 39.707C34.4141 39.5117 34.336 39.5117 33.9454 39.6973C33.3692 39.9707 33.3497 40.0293 33.3009 42.9688C33.252 45.5664 33.2423 45.6738 33.0177 46.1328C32.6954 46.7773 32.129 47.3242 31.4552 47.6465L30.9083 47.9004H18.7501H6.59188L6.045 47.6465C5.37117 47.3242 4.80477 46.7773 4.4825 46.1328L4.24813 45.6543L4.21883 25.127L4.1993 4.59961L4.40438 4.0625C4.62899 3.44727 5.24422 2.75391 5.83992 2.45117C6.52352 2.09961 6.9825 2.05078 8.97469 2.11914C11.2989 2.19727 11.2696 2.17773 11.4845 3.41797C11.6505 4.36523 11.9141 4.87305 12.5196 5.43945C13.3692 6.21094 13.2813 6.20117 18.7989 6.20117H23.6817L24.1895 5.9668C24.7755 5.71289 25.5274 4.96094 25.752 4.41406C25.8302 4.21875 25.9571 3.7207 26.0255 3.32031C26.2305 2.1875 26.2208 2.19727 28.5255 2.11914C29.668 2.08008 30.586 2.09961 30.8399 2.1582C31.797 2.37305 32.588 2.99805 33.0177 3.86719C33.2423 4.32617 33.252 4.43359 33.3009 7.03125C33.3497 9.9707 33.3692 10.0293 33.9454 10.3027C34.336 10.4883 34.4141 10.4883 34.8145 10.293C35.3907 10.0195 35.4493 9.76562 35.4493 7.30469C35.4493 4.60938 35.3614 3.99414 34.8731 2.97852C34.2481 1.67969 33.3399 0.839844 31.9727 0.3125L31.2989 0.0488281L18.9942 0.0292969C12.2266 0.0292969 6.51375 0.0585938 6.29891 0.0976562ZM24.0821 2.29492C24.043 2.43164 23.9942 2.74414 23.9649 3.00781C23.8868 3.59375 23.7013 3.88672 23.2911 4.0625C22.8028 4.26758 14.6973 4.26758 14.2091 4.0625C13.7989 3.88672 13.6134 3.59375 13.5352 3.00781C13.5059 2.74414 13.4571 2.43164 13.418 2.29492L13.3595 2.05078H18.7501H24.1407L24.0821 2.29492Z"
          fill="#322C2A"/>
    <path d="M27.8327 14.9412C24.9616 16.279 22.2663 17.529 21.8463 17.7244C21.2995 17.9783 21.0553 18.154 20.9479 18.3689C20.821 18.613 20.8014 19.5017 20.821 25.0974L20.8503 31.5427L21.1042 31.7869C21.2995 31.9822 25.9284 34.1892 32.6862 37.3142C32.9108 37.4119 33.2233 37.4997 33.3698 37.49C33.7995 37.4802 45.4108 32.031 45.6256 31.738C45.7917 31.5037 45.8014 31.1326 45.8014 24.9997C45.8112 18.8181 45.8014 18.4958 45.6256 18.2615C45.528 18.1247 45.3327 17.9685 45.2057 17.9001C42.6569 16.6599 33.653 12.5681 33.3991 12.5388C33.1159 12.5095 32.1393 12.9294 27.8327 14.9412ZM37.8034 16.7576C40.1862 17.8611 42.1686 18.7986 42.2077 18.8279C42.237 18.8669 41.6608 19.1794 40.9284 19.5115L39.5807 20.1365L35.2252 18.0564C32.8229 16.9236 30.86 15.9568 30.86 15.9177C30.86 15.8298 33.1061 14.7654 33.3112 14.7556C33.3893 14.7458 35.4108 15.654 37.8034 16.7576ZM32.6764 19.1599C35.0592 20.2927 37.0124 21.2497 37.0124 21.279C37.0124 21.3669 33.4577 22.988 33.3014 22.9685C33.2233 22.9685 31.9928 22.4119 30.567 21.7576C29.1413 21.0935 27.1784 20.1755 26.2018 19.7165C25.2253 19.2673 24.4538 18.8669 24.4928 18.8279C24.5807 18.74 28.1549 17.0896 28.2526 17.0896C28.3014 17.0896 30.2936 18.0173 32.6764 19.1599ZM28.0768 22.8904L32.1784 24.7947L32.2077 29.7947C32.2272 33.779 32.2077 34.7751 32.11 34.7361C31.9831 34.6872 27.3932 32.5486 24.5124 31.2107L22.9987 30.4978L22.9694 25.5076L22.9499 20.5173L23.4577 20.7517C23.7409 20.8787 25.821 21.8357 28.0768 22.8904ZM43.6823 30.4783C43.5846 30.5662 34.5417 34.7654 34.444 34.7654C34.4049 34.7654 34.3756 32.5388 34.3756 29.8044V24.8533L36.319 23.9548C37.3835 23.4568 38.3209 23.0271 38.4186 22.988C38.5553 22.9294 38.5749 23.0954 38.5749 24.7068V26.4841L38.8581 26.7673C39.1706 27.0701 39.6295 27.1384 40.069 26.9431C40.5377 26.7283 40.5768 26.5622 40.6256 24.1794L40.6745 21.9333L42.1881 21.2302L43.7018 20.5173L43.7311 25.4685C43.7409 28.1833 43.7213 30.4392 43.6823 30.4783Z"
          fill="#322C2A"/>
</svg>
