<svg width="50" height="50" viewBox="0 0 50 50" fill="none" xmlns="http://www.w3.org/2000/svg">
    <path d="M0.683498 0.0683594C-0.107517 0.361328 -0.195408 1.60156 0.54678 1.94336C0.70303 2.01172 1.57217 2.05078 2.97842 2.05078H5.17569V4.13086V6.2207L4.65811 6.33789C4.02334 6.47461 3.2128 7.00195 2.83194 7.5293C2.2753 8.31055 2.23623 8.59375 2.26553 11.6406C2.29483 14.3164 2.30459 14.4238 2.5292 14.8633C2.83194 15.4883 3.45694 16.0938 4.10147 16.3965C4.61904 16.6406 4.70694 16.6504 6.39639 16.6504C8.11514 16.6504 8.16397 16.6406 8.70108 16.3867C9.34561 16.0645 9.97061 15.4688 10.2147 14.9219L10.3905 14.5312L12.6366 14.5703C14.8339 14.5996 14.9022 14.6094 15.4296 14.8535C15.7226 15 16.1132 15.2637 16.2987 15.4395C16.7382 15.8789 17.3241 16.7969 17.2167 16.8945C17.1776 16.9336 15.2831 18.0566 13.0077 19.3848C10.6054 20.791 8.67178 21.9824 8.37881 22.2559C7.42178 23.1152 6.83584 24.3066 6.68936 25.6836C6.64053 26.2207 6.75772 27.1094 7.46084 31.3477C7.91983 34.1113 8.33975 36.543 8.39834 36.748C8.51553 37.1484 8.95498 37.5 9.35537 37.5C9.73623 37.5 10.1659 37.2168 10.3124 36.8652C10.4394 36.5527 10.3905 36.1719 9.60928 31.5234C8.67178 25.8887 8.64248 25.5273 9.121 24.6387C9.27725 24.3652 9.53115 24.0039 9.70693 23.8477C9.93154 23.623 17.3144 19.209 18.5253 18.5742C18.7108 18.4668 18.8183 18.5156 19.4042 18.9551C20.2245 19.5703 21.3573 20.1172 22.5097 20.4688C23.3202 20.7227 23.5253 20.7422 25.0487 20.7422C26.328 20.752 26.8456 20.7129 27.3144 20.5859C28.4179 20.2832 29.4335 19.834 30.2147 19.3164C30.6444 19.0332 31.0839 18.7402 31.2011 18.6621C31.3964 18.5352 31.6991 18.6914 35.703 21.0352C38.0565 22.4219 40.1269 23.6816 40.2929 23.8477C40.4687 24.0039 40.7226 24.3652 40.8788 24.6387C41.3573 25.5273 41.328 25.8887 40.3905 31.5234C39.6093 36.1719 39.5604 36.5527 39.6874 36.8652C39.8339 37.2168 40.2636 37.5 40.6444 37.5C41.0448 37.5 41.4843 37.1484 41.6015 36.748C41.6601 36.543 42.08 34.1113 42.539 31.3477C43.4569 25.8203 43.4667 25.6836 43.0175 24.3848C42.8905 24.0234 42.6562 23.5059 42.4804 23.2422C41.8651 22.2852 41.2304 21.8359 36.953 19.3457C34.6972 18.0371 32.8417 16.9531 32.8222 16.9336C32.7636 16.875 33.5741 15.6836 33.8573 15.4102C34.0136 15.2637 34.3944 15.0293 34.7167 14.873L35.3026 14.5996H37.5878H39.8729L40.0976 14.9902C40.4198 15.5762 40.996 16.1133 41.6015 16.3965C42.119 16.6406 42.2069 16.6504 43.8964 16.6504C45.6151 16.6504 45.664 16.6406 46.2011 16.3867C46.8651 16.0547 47.3925 15.5371 47.7343 14.8926L47.9979 14.4043V11.4746C47.9979 8.56445 47.9979 8.54492 47.7636 8.05664C47.2753 7.08008 46.3476 6.40625 45.3124 6.2793L44.8241 6.2207V4.14062V2.05078H47.0214C48.4276 2.05078 49.2968 2.01172 49.453 1.94336C50.039 1.66992 50.1464 0.751953 49.6483 0.283203L49.3944 0.0488281H43.7499H38.1054L37.8515 0.283203C37.3534 0.751953 37.4608 1.66992 38.0468 1.94336C38.203 2.01172 39.0722 2.05078 40.4784 2.05078H42.6757V4.13086V6.2207L42.1581 6.33789C41.289 6.5332 40.2147 7.41211 39.9901 8.11523C39.9315 8.29102 39.8046 8.30078 37.6562 8.30078C35.8983 8.30078 35.2831 8.27148 34.9706 8.1543C34.2382 7.90039 33.7206 7.43164 33.0468 6.43555C31.6015 4.26758 29.4921 2.82227 27.0019 2.29492C25.7714 2.02148 23.9257 2.06055 22.7147 2.38281C20.3808 2.98828 18.5058 4.32617 17.1581 6.34766C16.5136 7.31445 16.162 7.67578 15.5761 7.98828C15.0878 8.25195 15.0683 8.25195 12.744 8.28125L10.4003 8.31055L10.1073 7.80273C9.59951 6.93359 8.50576 6.25 7.59756 6.25H7.32412V4.15039V2.05078H9.52139C10.9276 2.05078 11.7968 2.01172 11.953 1.94336C12.539 1.66992 12.6464 0.751953 12.1483 0.283203L11.8944 0.0488281L6.36709 0.0292969C3.32022 0.0195312 0.761623 0.0390625 0.683498 0.0683594ZM27.3925 4.53125C29.0526 5.08789 30.3222 6.10352 31.3964 7.72461C32.3241 9.10156 33.0565 9.70703 34.3749 10.166C34.9511 10.3613 35.2343 10.3906 37.2851 10.4297L39.5507 10.4688V11.4844V12.5H37.4804C35.1757 12.5 34.5702 12.5977 33.6034 13.0762C32.8026 13.4863 32.0409 14.2188 31.3866 15.2148C29.7948 17.6465 27.3339 18.8965 24.5312 18.7207C22.1483 18.5645 20.1757 17.3438 18.6913 15.1172C17.8515 13.8672 17.08 13.2227 15.8593 12.7734C15.3417 12.5879 15.039 12.5586 12.9198 12.5195L10.5468 12.4805V11.4746V10.4688L12.8222 10.4297C14.7948 10.3906 15.1659 10.3516 15.7323 10.1758C16.8749 9.80469 18.037 8.87695 18.6522 7.86133C19.3554 6.68945 20.3026 5.76172 21.4843 5.09766C22.6952 4.41406 23.6815 4.18945 25.3417 4.23828C26.4062 4.26758 26.7382 4.30664 27.3925 4.53125ZM7.88076 8.44727C8.45693 8.69141 8.50576 8.96484 8.47647 11.6406L8.44717 13.9844L8.1249 14.2676L7.8124 14.5508H6.39639H4.98037L4.66787 14.2676L4.34561 13.9844L4.31631 11.582C4.28701 8.90625 4.32608 8.70117 4.91201 8.44727C5.35147 8.26172 7.43154 8.26172 7.88076 8.44727ZM45.3808 8.44727C45.9569 8.69141 46.0058 8.96484 45.9765 11.6406L45.9472 13.9844L45.6249 14.2676L45.3124 14.5508H43.8964H42.4804L42.1679 14.2676L41.8456 13.9844L41.8163 11.582C41.787 8.90625 41.8261 8.70117 42.412 8.44727C42.8515 8.26172 44.9315 8.26172 45.3808 8.44727Z"
          fill="#322C2A"/>
    <path d="M22.1191 26.2207C20.6738 26.9043 19.1992 27.5879 18.8477 27.7539C18.4961 27.9199 17.0312 28.5938 15.5762 29.2676C14.0234 29.9805 12.8516 30.5762 12.7246 30.7227L12.5 30.9668V37.4316C12.5 43.5645 12.5098 43.916 12.6855 44.1895C12.8418 44.4434 13.75 44.8926 18.8086 47.2363C22.0801 48.7598 24.873 50 25.0098 50C25.1465 50 26.416 49.4629 27.832 48.7988C29.2578 48.1348 31.9336 46.8945 33.7793 46.0449C36.5918 44.7363 37.168 44.4336 37.3242 44.1895C37.4902 43.916 37.5 43.5352 37.5 37.4316V30.9668L37.2852 30.7227C37.0117 30.4199 25.6055 25.0977 25.0977 25.0391C24.8145 25 24.2871 25.2148 22.1191 26.2207ZM29.502 29.2676C31.9141 30.3906 33.8867 31.3281 33.8867 31.3574C33.8867 31.3867 33.291 31.6895 32.5586 32.0215L31.2402 32.6367L26.8555 30.5566C24.4434 29.4043 22.4707 28.4473 22.4609 28.418C22.4609 28.3496 24.8242 27.2559 24.9902 27.2559C25.0684 27.2461 27.0996 28.1543 29.502 29.2676ZM24.4043 31.6895C26.7676 32.8125 28.6719 33.7695 28.6328 33.8086C28.5938 33.8477 27.7637 34.2578 26.7773 34.707L25 35.5371L20.5566 33.4668C18.1152 32.334 16.1523 31.3672 16.1914 31.3281C16.3477 31.1719 19.7852 29.5996 19.9414 29.6191C20.0293 29.6289 22.041 30.5566 24.4043 31.6895ZM19.3262 35.1953L23.9258 37.334V42.3047C23.9258 45.0293 23.9062 47.2656 23.8867 47.2656C23.8477 47.2656 20.4883 45.7129 15.7227 43.4961L14.5996 42.9785L14.5703 37.9785C14.5605 35.0195 14.5898 33.0078 14.6387 33.0273C14.6875 33.0371 16.7969 34.0234 19.3262 35.1953ZM35.4297 37.998L35.4004 42.9785L30.791 45.127C28.252 46.2988 26.1523 47.2656 26.123 47.2656C26.0938 47.2656 26.0742 45.0293 26.0742 42.3047V37.3438L28.1055 36.3965L30.127 35.459L30.1758 37.1387C30.2246 38.8867 30.2734 39.1113 30.6836 39.3945C30.9668 39.5996 31.5332 39.5898 31.8262 39.3945C32.2656 39.082 32.3242 38.7305 32.3242 36.5039V34.4238L33.8184 33.7305C34.6289 33.3398 35.332 33.0273 35.3809 33.0176C35.4199 33.0078 35.4395 35.2539 35.4297 37.998Z"
          fill="#322C2A"/>
</svg>
