<svg width="126" height="40" viewBox="0 0 126 40" fill="none" xmlns="http://www.w3.org/2000/svg">
    <path fill-rule="evenodd" clip-rule="evenodd"
          d="M27.5667 0H33.9282L23.5612 20.1485H31.1008L44.5308 46.25H38.1692L16.8896 26.1015H0L27.5667 0ZM71.7966 13.0818C71.7966 13.5152 71.7103 13.9201 71.5377 14.2965C71.3765 14.6728 71.1523 15.0035 70.8646 15.2888C70.577 15.5625 70.2377 15.7849 69.8465 15.9559C69.4669 16.1157 69.0584 16.1955 68.6212 16.1955C68.1841 16.1955 67.7699 16.1157 67.3787 15.9559C66.9991 15.7849 66.6655 15.5625 66.3779 15.2888C66.1018 15.0035 65.8774 14.6728 65.7048 14.2965C65.5439 13.9201 65.4633 13.5152 65.4633 13.0818C65.4633 12.6598 65.5439 12.2606 65.7048 11.8842C65.8774 11.4964 66.1018 11.1656 66.3779 10.8919C66.6655 10.6068 66.9991 10.3844 67.3787 10.2247C67.7699 10.0536 68.1841 9.96806 68.6212 9.96806C69.0584 9.96806 69.4669 10.0536 69.8465 10.2247C70.2377 10.3844 70.577 10.6068 70.8646 10.8919C71.1523 11.1656 71.3765 11.4964 71.5377 11.8842C71.7103 12.2606 71.7966 12.6598 71.7966 13.0818ZM70.9854 36.3832H66.2399V18.0602H70.9854V36.3832ZM64.1517 36.3832H46.8259V11.85H51.7786V31.4733H64.1517V36.3832ZM74.592 36.3832H79.3032V25.913C79.3032 25.4339 79.3953 24.9834 79.5793 24.5614C79.7634 24.1281 80.0164 23.7516 80.3386 23.4323C80.6607 23.1129 81.0404 22.8621 81.4775 22.6796C81.9148 22.4971 82.3807 22.4058 82.8753 22.4058C83.3585 22.4058 83.813 22.4971 84.2386 22.6796C84.6642 22.8621 85.0383 23.1129 85.3604 23.4323C85.6825 23.7516 85.9355 24.1281 86.1196 24.5614C86.3037 24.9834 86.3957 25.4339 86.3957 25.913V36.3832H91.1068V25.913C91.1068 24.7839 90.8883 23.7232 90.451 22.7309C90.0254 21.7272 89.4386 20.8547 88.6909 20.1134C87.9431 19.3605 87.0688 18.7731 86.0679 18.3512C85.0669 17.9177 84.0028 17.7011 82.8753 17.7011C81.8285 17.7011 80.8218 17.8892 79.8554 18.2656C78.9005 18.6306 78.0434 19.1553 77.2842 19.8396L75.731 18.0602H74.592V36.3832ZM103.497 36.3832C102.358 36.3832 101.288 36.1723 100.287 35.7504C99.2865 35.3169 98.4064 34.7295 97.6472 33.9882C96.8993 33.2353 96.3069 32.3628 95.8697 31.3705C95.4441 30.3783 95.2312 29.3175 95.2312 28.1885V22.7479H92.936V18.0945H95.2312V10.7721H99.925V18.0945H107.069V22.7479H99.925V28.1885C99.925 28.6788 100.017 29.1408 100.201 29.5742C100.385 29.9962 100.638 30.3668 100.96 30.6862C101.283 31.0055 101.662 31.2622 102.099 31.4561C102.537 31.6385 103.002 31.7298 103.497 31.7298H107.069V36.3832H103.497ZM122.083 35.22C122.52 34.912 122.928 34.5869 123.308 34.2448L124.861 36.3832H126V18.0602H121.289V28.1885C121.289 28.6788 121.197 29.1579 121.013 29.6255C120.829 30.0817 120.576 30.4923 120.253 30.8573C119.931 31.2223 119.552 31.5189 119.115 31.747C118.689 31.9636 118.234 32.072 117.751 32.072C117.257 32.072 116.791 31.9865 116.354 31.8154C115.928 31.6442 115.554 31.3934 115.232 31.0627C114.91 30.7318 114.651 30.327 114.455 29.8479C114.271 29.3574 114.179 28.8043 114.179 28.1885V18.0602H109.485V28.1885C109.485 29.5 109.698 30.6862 110.124 31.747C110.561 32.7963 111.153 33.6915 111.901 34.433C112.661 35.163 113.541 35.7275 114.542 36.1267C115.542 36.5259 116.612 36.7255 117.751 36.7255C118.269 36.7255 118.775 36.657 119.27 36.5201C119.776 36.3948 120.265 36.2236 120.737 36.0069C121.208 35.7788 121.657 35.5164 122.083 35.22Z"
          fill="#224757"/>
</svg>
