<svg width="156" height="50" viewBox="0 0 156 50" fill="none" xmlns="http://www.w3.org/2000/svg">
    <g clip-path="url(#clip0_41_262)">
        <path fill-rule="evenodd" clip-rule="evenodd"
              d="M34.1302 0H42.0063L29.171 25.1856H38.5057L55.1334 57.8125H47.2571L20.911 32.6269H0L34.1302 0ZM88.891 16.3522C88.891 16.894 88.7841 17.4001 88.5704 17.8706C88.3709 18.341 88.0933 18.7544 87.7371 19.111C87.3811 19.4531 86.9609 19.7312 86.4766 19.9449C86.0066 20.1446 85.5009 20.2444 84.9596 20.2444C84.4184 20.2444 83.9056 20.1446 83.4212 19.9449C82.9512 19.7312 82.5382 19.4531 82.1822 19.111C81.8403 18.7544 81.5626 18.341 81.3489 17.8706C81.1495 17.4001 81.0498 16.894 81.0498 16.3522C81.0498 15.8247 81.1495 15.3257 81.3489 14.8552C81.5626 14.3705 81.8403 13.9571 82.1822 13.6149C82.5382 13.2585 82.9512 12.9804 83.4212 12.7808C83.9056 12.567 84.4184 12.4601 84.9596 12.4601C85.5009 12.4601 86.0066 12.567 86.4766 12.7808C86.9609 12.9804 87.3811 13.2585 87.7371 13.6149C88.0933 13.9571 88.3709 14.3705 88.5704 14.8552C88.7841 15.3257 88.891 15.8247 88.891 16.3522ZM87.8867 45.4791H82.0112V22.5753H87.8867V45.4791ZM79.4259 45.4791H57.9749V14.8125H64.1068V39.3416H79.4259V45.4791ZM92.3521 45.4791H98.185V32.3913C98.185 31.7924 98.2989 31.2293 98.5268 30.7018C98.7547 30.1601 99.068 29.6895 99.4668 29.2903C99.8656 28.8911 100.336 28.5776 100.877 28.3495C101.418 28.1213 101.995 28.0073 102.607 28.0073C103.206 28.0073 103.768 28.1213 104.295 28.3495C104.822 28.5776 105.285 28.8911 105.684 29.2903C106.083 29.6895 106.396 30.1601 106.624 30.7018C106.852 31.2293 106.966 31.7924 106.966 32.3913V45.4791H112.799V32.3913C112.799 30.9798 112.528 29.654 111.987 28.4136C111.46 27.159 110.734 26.0684 109.808 25.1417C108.882 24.2007 107.799 23.4664 106.56 22.9389C105.321 22.3971 104.003 22.1263 102.607 22.1263C101.311 22.1263 100.065 22.3616 98.8686 22.832C97.6864 23.2882 96.6252 23.9441 95.6852 24.7995L93.7622 22.5753H92.3521V45.4791ZM128.139 45.4791C126.729 45.4791 125.405 45.2154 124.165 44.688C122.926 44.1461 121.837 43.4118 120.897 42.4852C119.971 41.5441 119.237 40.4535 118.696 39.2131C118.169 37.9729 117.905 36.6469 117.905 35.2356V28.4349H115.064V22.6181H117.905V13.4652H123.717V22.6181H132.562V28.4349H123.717V35.2356C123.717 35.8485 123.831 36.4261 124.059 36.9677C124.286 37.4952 124.6 37.9585 124.999 38.3577C125.398 38.7569 125.868 39.0777 126.409 39.3201C126.95 39.5482 127.527 39.6622 128.139 39.6622H132.562V45.4791H128.139ZM151.15 44.0249C151.691 43.64 152.197 43.2337 152.667 42.806L154.59 45.4791H156V22.5753H150.167V35.2356C150.167 35.8485 150.053 36.4474 149.825 37.0319C149.598 37.6021 149.284 38.1154 148.885 38.5716C148.486 39.0278 148.016 39.3986 147.475 39.6837C146.948 39.9545 146.385 40.09 145.787 40.09C145.175 40.09 144.598 39.9831 144.057 39.7692C143.53 39.5553 143.067 39.2417 142.668 38.8283C142.269 38.4147 141.949 37.9088 141.706 37.3099C141.479 36.6968 141.365 36.0054 141.365 35.2356V22.5753H135.553V35.2356C135.553 36.875 135.817 38.3577 136.344 39.6837C136.885 40.9954 137.618 42.1144 138.544 43.0413C139.484 43.9537 140.574 44.6593 141.813 45.1584C143.053 45.6574 144.377 45.9068 145.787 45.9068C146.428 45.9068 147.055 45.8212 147.668 45.6501C148.294 45.4934 148.9 45.2795 149.484 45.0086C150.068 44.7235 150.623 44.3955 151.15 44.0249Z"
              fill="#322C2A"/>
    </g>
    <defs>
        <clipPath id="clip0_41_262">
            <rect width="156" height="50" fill="white"/>
        </clipPath>
    </defs>
</svg>
