<svg width="50" height="50" viewBox="0 0 50 50" fill="none" xmlns="http://www.w3.org/2000/svg">
    <path d="M29.1011 5.72239C28.9644 5.74192 28.4663 5.81028 27.978 5.86888C25.0679 6.23021 21.6694 7.60716 19.189 9.45286C18.1538 10.2243 16.5229 11.7771 15.7026 12.7634L15.1265 13.4763H10.5854C5.66357 13.4763 5.63428 13.4763 5.39014 14.0134C5.24365 14.3357 5.24365 14.57 5.39014 14.8923C5.62451 15.4197 5.7124 15.4294 9.95068 15.4294H13.8569L13.4175 16.279C13.1733 16.7575 12.8413 17.4997 12.6753 17.9392L12.3726 18.7497H6.57178C0.272949 18.7497 0.36084 18.74 0.116699 19.2868C-0.0297852 19.6091 -0.0297852 19.8435 0.116699 20.1658C0.36084 20.7126 0.302246 20.7029 6.3081 20.7029C11.0444 20.7029 11.8257 20.7224 11.7866 20.8396C11.7378 20.9665 11.5034 22.4802 11.3765 23.5544L11.3179 24.0232H9.36475C7.23584 24.0232 6.97217 24.0818 6.75732 24.5603C6.60107 24.8923 6.61084 25.1462 6.77685 25.4783C7.01123 25.9275 7.26514 25.9763 9.37451 25.9763H11.3179L11.3667 26.3865C11.396 26.6208 11.4644 27.197 11.5327 27.6853C11.7769 29.6189 12.6558 32.3825 13.5347 33.9548L13.8765 34.5701H7.32373C0.214355 34.5701 0.36084 34.5603 0.116699 35.1072C-0.117676 35.6052 0.0776367 36.2009 0.536621 36.406C0.722168 36.4939 2.60693 36.5232 7.9585 36.5232H15.1265L15.7026 37.2361C16.4741 38.1638 18.1245 39.7556 19.0522 40.449C21.5815 42.3435 24.4136 43.5447 27.6851 44.1111C29.0327 44.3454 32.2749 44.3454 33.6421 44.1013C36.8354 43.5544 39.5503 42.4216 42.1089 40.5759C43.105 39.8533 45.3804 37.6072 46.1128 36.6208C49.6186 31.8747 50.8296 25.8591 49.4038 20.2634C48.7788 17.8415 47.6069 15.3904 46.1226 13.4079C45.4097 12.4509 43.8179 10.7908 42.9097 10.0486C40.2729 7.90013 37.1089 6.47435 33.6909 5.90794C32.812 5.76146 29.6187 5.62474 29.1011 5.72239ZM32.4995 7.72435C42.5386 8.82786 49.5601 18.2029 47.7534 28.1052C45.8979 38.2615 35.5561 44.6091 25.7026 41.6404C17.6655 39.2087 12.48 31.4255 13.3882 23.1638C14.2866 14.9314 20.8101 8.5056 29.1011 7.68528C29.8823 7.60716 31.6108 7.62669 32.4995 7.72435Z"
          fill="#322C2A"/>
    <path d="M29.2471 9.92177C26.7471 10.1952 24.3154 11.0741 22.167 12.5097C20.9756 13.3007 19.0127 15.2538 18.1924 16.455C17.0303 18.1835 16.21 20.1464 15.7998 22.1972C15.4873 23.7597 15.4873 26.2401 15.7998 27.8026C16.415 30.8983 17.7627 33.3983 20.0088 35.6542C22.2842 37.9198 24.8721 39.2968 28.0264 39.9022C29.4326 40.1659 32.0205 40.1464 33.4658 39.8632C36.5615 39.2479 39.0615 37.9003 41.3174 35.6542C43.583 33.3788 44.96 30.7909 45.5654 27.6366C45.8291 26.2304 45.8096 23.6425 45.5264 22.1972C44.9111 19.1015 43.5635 16.6015 41.3174 14.3456C39.0713 12.1093 36.542 10.7421 33.5244 10.1561C32.499 9.95107 30.1455 9.82412 29.2471 9.92177ZM33.0947 12.0604C35.7705 12.578 37.9971 13.7694 39.9502 15.7128C41.8545 17.6269 42.9971 19.7362 43.5732 22.3925C43.876 23.8085 43.876 26.1913 43.5732 27.6073C42.9971 30.2636 41.8545 32.3632 39.9404 34.2772C38.0264 36.1913 35.9268 37.3339 33.2705 37.9101C31.8545 38.2128 29.4717 38.2128 28.0557 37.9101C25.5654 37.3729 23.4365 36.2597 21.6104 34.5311C19.6963 32.7245 18.417 30.4687 17.8018 27.8026C17.5771 26.8456 17.5381 26.5038 17.5381 24.9999C17.5381 23.496 17.5771 23.1542 17.8018 22.1972C19.0908 16.6601 23.4268 12.6952 29.0518 11.9237C29.9795 11.7968 32.0889 11.8651 33.0947 12.0604Z"
          fill="#322C2A"/>
    <path d="M30.1559 14.912C29.5211 15.3026 29.5602 16.2791 30.2242 16.5819C30.7223 16.8065 31.2691 16.6502 31.5035 16.201C31.6793 15.8397 31.6793 15.5662 31.4742 15.2342C31.191 14.7557 30.6344 14.619 30.1559 14.912Z"
          fill="#322C2A"/>
    <path d="M27.2645 21.1426C26.8837 21.3086 26.6493 21.7872 26.7372 22.2168C26.7665 22.4122 27.1083 22.8321 27.7528 23.4961L28.7196 24.4922L28.7489 25.0684C28.8173 26.7872 30.8192 27.5782 32.0399 26.3575L32.4208 25.9766H36.3368H40.2528L40.5849 25.6446C40.8192 25.4004 40.9169 25.2247 40.9169 25.0001C40.9169 24.7754 40.8192 24.5997 40.5849 24.3555L40.2528 24.0235H36.2978H32.3427L32.1962 23.7891C31.9227 23.379 31.3661 23.1055 30.7313 23.086L30.1552 23.0567L29.1493 22.0801C28.5927 21.5333 28.0751 21.0938 27.9872 21.0938C27.9091 21.0938 27.7919 21.0743 27.7138 21.045C27.6454 21.0254 27.4403 21.0645 27.2645 21.1426Z"
          fill="#322C2A"/>
    <path d="M20.7422 24.3553C20.293 24.8045 20.293 25.1951 20.7422 25.6443C21.0938 25.9959 21.3965 26.0545 21.8262 25.8592C22.5 25.5564 22.5195 24.5018 21.8652 24.16C21.4258 23.9354 21.1035 23.9939 20.7422 24.3553Z"
          fill="#322C2A"/>
    <path d="M30.1856 33.4368C29.541 33.7982 29.5313 34.7161 30.1758 35.0872C30.6641 35.3802 31.1914 35.2435 31.4746 34.765C31.9825 33.9056 31.0645 32.9486 30.1856 33.4368Z"
          fill="#322C2A"/>
    <path d="M0.498289 29.4332C-0.156008 29.7945 -0.136476 30.8297 0.537352 31.1324C0.937742 31.318 6.36743 31.2984 6.72876 31.1129C7.37329 30.7711 7.37329 29.775 6.72876 29.4332C6.3479 29.2379 0.849852 29.2379 0.498289 29.4332Z"
          fill="#322C2A"/>
</svg>
