<svg width="50" height="50" viewBox="0 0 50 50" fill="none" xmlns="http://www.w3.org/2000/svg">
    <g clip-path="url(#clip0_41_312)">
        <path d="M17.2656 0.283158L16.9434 0.566361V3.10542C16.9434 5.64449 16.9434 5.64449 17.1777 5.89839C17.4707 6.20113 17.8906 6.30855 18.2715 6.1523C18.8086 5.92769 18.8477 5.72261 18.8477 3.07613C18.8477 1.61128 18.8086 0.595658 18.75 0.478471C18.623 0.244096 18.1543 -4.48227e-05 17.832 -4.48227e-05C17.6953 -4.48227e-05 17.4414 0.126908 17.2656 0.283158Z"
              fill="#322C2A"/>
        <path d="M21.9141 0.331995L21.582 0.664026V4.72653C21.582 9.07223 21.6016 9.21871 22.0605 9.47262C22.4414 9.66793 22.9492 9.58981 23.252 9.28707L23.5352 9.00387V4.89254C23.5352 0.488245 23.5254 0.390589 23.0371 0.136683C22.5977 -0.0879269 22.2754 -0.0293331 21.9141 0.331995Z"
              fill="#322C2A"/>
        <path d="M30.6735 2.34375C27.7242 3.11523 25.9176 6.11328 26.611 9.07227C26.8453 10.0488 27.3824 10.9863 28.1637 11.7676C29.2672 12.8613 30.527 13.3789 32.0797 13.3789C33.6715 13.3789 34.9117 12.8613 36.0446 11.7188C37.1774 10.5762 37.695 9.3457 37.695 7.7832C37.695 4.10156 34.2281 1.41602 30.6735 2.34375ZM33.2125 4.29688C34.0328 4.56055 34.6871 5.04883 35.1559 5.77148C36.3766 7.65625 35.6539 10.166 33.6129 11.1133C33.1246 11.3477 32.9293 11.377 32.0797 11.377C31.2203 11.377 31.0348 11.3477 30.5465 11.1133C29.8238 10.7812 29.1207 10.0684 28.7496 9.32617C28.4957 8.79883 28.4664 8.64258 28.4664 7.8125C28.4664 6.97266 28.4957 6.82617 28.7692 6.25C29.5895 4.53125 31.4156 3.73047 33.2125 4.29688Z"
              fill="#322C2A"/>
        <path d="M16.6989 10.7909C14.6383 11.2499 12.9293 12.9491 12.4411 14.9999C12.3336 15.4784 12.2946 15.9374 12.3336 16.6015C12.3922 17.6952 12.6364 18.4862 13.193 19.3359C13.3981 19.6581 13.5739 19.9511 13.5739 19.9706C13.5739 19.9999 12.4118 20.0194 10.9957 20.0194C8.70083 20.0194 8.34926 20.039 7.79262 20.2148C5.99575 20.7616 4.63833 22.373 4.39419 24.2187C4.29653 25.0292 4.23073 42.4511 4.32839 42.9394C4.47487 43.6816 4.45676 37.578 5.02317 37.0898L4.73699 39.8339L6.29848 45.7519L6.25942 27.6659C6.29848 24.7558 6.33755 24.1991 6.48403 23.8183C6.72817 23.1542 7.24575 22.6073 7.93911 22.2655L8.54458 21.9726L22.9489 21.9921L37.3532 22.0214L37.8219 22.2655C38.3883 22.5487 38.9157 23.1054 39.1989 23.7206C39.3942 24.1405 39.404 24.3456 39.4333 27.1191L39.4625 30.0683L33.9645 30.0976C28.5836 30.1366 28.4567 30.1366 27.8219 30.3515C25.0094 31.289 23.6325 34.4726 24.9118 37.0898C25.3024 37.8905 26.2008 38.8476 26.9333 39.2382C28.0563 39.8437 28.1149 39.8437 34.0622 39.8437H39.4625L39.4333 42.8026L39.404 45.7519L39.0817 46.4159C38.8473 46.8749 38.6227 47.1679 38.3102 47.412C37.4215 48.0859 38.3786 48.0566 22.6461 48.0273L8.44692 47.998L7.9977 47.7734C7.3727 47.4706 6.85512 46.9433 6.55239 46.2987L6.29848 45.7519L6.25942 27.6659L6.11294 33.164L5.96645 38.662C6.25942 27.6659 5.41379 35.3417 5.02317 35.5468C5.02317 35.5468 4.277 39.0526 4.32583 42.7245C4.35512 45.703 4.37466 45.996 4.56997 46.5917C4.98012 47.8319 5.87856 48.8769 7.05044 49.4726C8.12466 50.0194 7.36294 49.9999 24.9606 49.9999C35.5954 49.9999 41.3668 49.9609 41.7086 49.9023C43.3981 49.58 44.8629 48.2812 45.4293 46.5917L45.654 45.9472L45.6833 35.5468C45.7028 28.9941 45.6735 24.8534 45.6149 24.3456C45.3708 22.3437 44.0231 20.7519 42.0993 20.1757C41.6208 20.039 40.4977 20.0194 31.8551 20.0194H22.1481L22.3922 19.6874C24.0622 17.4999 23.8375 14.2675 21.8844 12.3144C20.5661 10.996 18.4958 10.3808 16.6989 10.7909ZM19.3844 12.9296C20.1461 13.2714 20.9079 14.0331 21.2497 14.7753C21.5036 15.3027 21.5329 15.4882 21.5329 16.3085C21.5329 17.1093 21.4938 17.3144 21.279 17.7734C20.9274 18.5155 20.3317 19.1503 19.6579 19.5116C17.8024 20.498 15.5563 19.7753 14.6286 17.8905C14.3258 17.2851 14.3063 17.1679 14.3063 16.2597C14.3063 15.3905 14.3356 15.2245 14.5797 14.7265C15.0583 13.7597 16.0348 12.9589 17.0602 12.6952C17.6852 12.539 18.779 12.6464 19.3844 12.9296ZM42.07 22.2753C42.7438 22.6073 43.2614 23.164 43.525 23.8378C43.6618 24.1991 43.7008 24.7265 43.7301 27.1679L43.7692 30.078H42.5875H41.4059V27.412C41.4059 24.2968 41.3375 23.7499 40.8395 22.7245L40.4684 21.9726H40.9665C41.3375 21.9726 41.6403 22.0507 42.07 22.2753ZM43.7301 34.9804L43.7497 37.8905H36.2497C27.8512 37.8905 28.2223 37.9198 27.3922 37.1874C27.1481 36.9726 26.8258 36.5624 26.6793 36.289C26.3278 35.6054 26.3083 34.453 26.6403 33.7792C27.0504 32.9394 27.861 32.3046 28.7399 32.1288C28.9645 32.0898 32.4215 32.0605 36.4254 32.0702L43.7008 32.08L43.7301 34.9804ZM43.7008 42.8222V45.7519L43.4469 46.2987C42.9684 47.3046 42.0993 47.9198 41.0055 48.0175L40.4 48.0761L40.6637 47.6366C40.8004 47.4023 41.0153 46.9433 41.1325 46.621C41.3278 46.0839 41.3473 45.8398 41.3864 42.9394L41.4254 39.8339L42.5583 39.8632L43.7008 39.8925V42.8222Z"
              fill="#322C2A"/>
        <path d="M28.6124 34.1605C28.1339 34.3949 27.9483 34.9125 28.1729 35.3812C28.4659 35.9964 29.2179 36.1332 29.6964 35.6546C30.1944 35.1566 30.0186 34.3167 29.3741 34.0921C28.9932 33.9554 29.0128 33.9554 28.6124 34.1605Z"
              fill="#322C2A"/>
        <path d="M4.91154 34.1308C4.28654 34.3945 4.16935 35.205 4.67717 35.664C5.09709 36.0449 5.5756 36.0351 5.96623 35.6542C6.46427 35.1562 6.28849 34.3164 5.64396 34.0917C5.27287 33.9648 5.2924 33.9648 4.91154 34.1308Z"
              fill="#322C2A"/>
    </g>
    <defs>
        <clipPath id="clip0_41_312">
            <rect width="50" height="50" fill="white"/>
        </clipPath>
    </defs>
</svg>
